<svg width="80" height="80" viewBox="0 0 275 275" fill="none" xmlns="http://www.w3.org/2000/svg">
<circle cx="137.5" cy="137.5" r="137.5" fill="#D90000"/>
<path d="M215 78.3235C215 78.3235 174.277 58.2042 116.557 64.073C116.557 64.073 109.413 73.7606 108.142 94.7726C105.471 85.2414 103.758 75.4666 103.027 65.5939C103.027 65.5939 79.0681 69.6442 61 77.8936C61 77.8936 63.9701 123.29 97.9118 170.472C97.9118 170.472 110.221 171.877 129.527 161.975C122.487 169.327 114.706 175.931 106.311 181.681C106.311 181.681 121.788 200.444 137.942 212C137.942 212 175.696 186.723 199.473 133.705C199.473 133.705 194.622 122.546 176.867 110.875C186.452 113.301 195.772 116.679 204.687 120.959C204.687 120.959 213.086 98.1286 215 78.3235ZM138.074 152.155C127.229 138.946 118.607 124.054 112.548 108.064C129.393 105.302 146.574 105.302 163.419 108.064C157.413 124.041 148.853 138.932 138.074 152.155Z" fill="white"/>
</svg>
