<svg xmlns="http://www.w3.org/2000/svg" viewBox="0 0 566.93 90.11" fill="black"><path d="M315.46,287.82l-2.87,5.46c-.88,1.82-2.12,2.52-5.5,2.52H290.53L296,285.3h16.56C315.59,285.3,316.49,285.72,315.46,287.82Zm28.34,0c3.9-7.52-1-9.89-13.23-9.89H271.15L248,322.46h28.64l10.07-19.3h8.68l3.54,19.3H330l-5.56-19.3c9.33,0,12.88-2.84,14.9-6.74Z" transform="translate(-137.48 -252.58)" style="fill:currentColor"/><path d="M421.29,285.31H387.46l-5.37,10.48h33l-3.83,7.36h-33L372,315.11H406l-3.88,7.36H339.62l23.16-44.54h62.38Z" transform="translate(-137.48 -252.58)" style="fill:currentColor"/><path d="M529.41,277.72l-55.22,44.84H436.62L433,277.72h37.27l2.67,30.68,38.22-30.67Z" transform="translate(-137.48 -252.58)" style="fill:currentColor"/><path d="M539.79,295.85H526.74L536,277.94h13.2Z" transform="translate(-137.48 -252.58)" style="fill:currentColor"/><path d="M564,322.46H535.35l23.13-44.52H587.1Z" transform="translate(-137.48 -252.58)" style="fill:currentColor"/><path d="M664.14,285.32H642.78l-19.33,37.12H595.16l19.25-37.16H592.86l3.9-7.35h71.31Z" transform="translate(-137.48 -252.58)" style="fill:currentColor"/><path d="M695,295.82l-7.89,10H665l2.53-10,9.38-17.89h27.52Zm-13.76,26.64H653.72l6.11-11.68h27.51Z" transform="translate(-137.48 -252.58)" style="fill:currentColor"/><path d="M230.86,261.85s-24.68-12.17-59.66-8.62c0,0-4.33,5.86-5.1,18.57A89.87,89.87,0,0,1,163,254.15s-14.52,2.45-25.47,7.44c0,0,1.8,27.46,22.37,56,0,0,7.46.85,19.16-5.14a89.44,89.44,0,0,1-14.07,11.92s9.38,11.35,19.17,18.34c0,0,22.88-15.29,37.29-47.36,0,0-2.94-6.75-13.7-13.81a90.09,90.09,0,0,1,16.86,6.1S229.7,273.83,230.86,261.85Zm-46.62,44.66a95.13,95.13,0,0,1-15.47-26.67,95.42,95.42,0,0,1,30.83,0A95.22,95.22,0,0,1,184.24,306.51Z" transform="translate(-137.48 -252.58)" style="fill:currentColor"/></svg>