<svg width="100%" height="100%" viewBox="0 0 1200 1200" version="1.1" xmlns="http://www.w3.org/2000/svg" xmlns:xlink="http://www.w3.org/1999/xlink" xml:space="preserve" xmlns:serif="http://www.serif.com/" style="fill-rule:evenodd;clip-rule:evenodd;stroke-linejoin:round;stroke-miterlimit:2;">
    <rect id="Artboard1" x="0" y="0" width="1200" height="1200" style="fill:none;"/>
    <g id="Artboard11" serif:id="Artboard1">
        <g transform="matrix(12.4156,0,0,12.4156,-1686.59,-3086.27)">
            <path d="M230.86,261.85C230.86,261.85 206.18,249.68 171.2,253.23C171.2,253.23 166.87,259.09 166.1,271.8C164.481,266.035 163.443,260.122 163,254.15C162.557,248.178 148.48,256.6 137.53,261.59C137.53,261.59 139.33,289.05 159.9,317.59C159.9,317.59 167.36,318.44 179.06,312.45C174.793,316.897 170.078,320.892 164.99,324.37C159.902,327.848 174.37,335.72 184.16,342.71C184.16,342.71 207.04,327.42 221.45,295.35C221.45,295.35 218.51,288.6 207.75,281.54C213.559,283.008 219.207,285.051 224.61,287.64C230.013,290.229 229.7,273.83 230.86,261.85ZM184.24,306.51C177.667,298.52 172.442,289.512 168.77,279.84C178.979,278.169 189.391,278.169 199.6,279.84C195.96,289.504 190.772,298.512 184.24,306.51Z" style="fill:white;fill-rule:nonzero;"/>
        </g>
    </g>
</svg>
